<?xml version="1.0" encoding="UTF-8" standalone="no"?>
<!-- Uploaded to: SVG Repo, www.svgrepo.com, Generator: SVG Repo Mixer Tools -->

<svg
   width="800px"
   height="800px"
   viewBox="0 0 64 64"
   stroke-width="3"
   stroke="#000000"
   fill="none"
   version="1.1"
   id="svg2"
   sodipodi:docname="favicon.svg"
   inkscape:version="1.4.2 (2aeb623e1d, 2025-05-12)"
   xmlns:inkscape="http://www.inkscape.org/namespaces/inkscape"
   xmlns:sodipodi="http://sodipodi.sourceforge.net/DTD/sodipodi-0.dtd"
   xmlns="http://www.w3.org/2000/svg"
   xmlns:svg="http://www.w3.org/2000/svg">
  <defs
     id="defs2" />
  <sodipodi:namedview
     id="namedview2"
     pagecolor="#ffffff"
     bordercolor="#999999"
     borderopacity="1"
     inkscape:showpageshadow="2"
     inkscape:pageopacity="0"
     inkscape:pagecheckerboard="0"
     inkscape:deskcolor="#d1d1d1"
     showgrid="false"
     inkscape:zoom="0.70975843"
     inkscape:cx="334.62089"
     inkscape:cy="254.31188"
     inkscape:window-width="1849"
     inkscape:window-height="1011"
     inkscape:window-x="0"
     inkscape:window-y="0"
     inkscape:window-maximized="1"
     inkscape:current-layer="svg2" />
  <path
     d="M32.39,7.32,14,15a1,1,0,0,0-.61.92V32.23h0A22.87,22.87,0,0,0,24.58,51.9l8.17,4.86,8.06-4.84A22.89,22.89,0,0,0,51.9,32.31V15a1,1,0,0,0-.65-.94L33.12,7.3A1,1,0,0,0,32.39,7.32Z"
     id="path1"
     style="fill:none;stroke:#000000;stroke-opacity:1" />
  <path
     d="M32.83,17.92l3.64,7.37a.16.16,0,0,0,.1.08l8.14,1.18a.13.13,0,0,1,.07.23L38.9,32.51a.12.12,0,0,0,0,.12l1.39,8.1a.14.14,0,0,1-.2.15l-7.27-3.83a.15.15,0,0,0-.13,0l-7.27,3.83a.14.14,0,0,1-.2-.15l1.39-8.1a.15.15,0,0,0,0-.12l-5.88-5.73a.13.13,0,0,1,.07-.23l8.13-1.18a.15.15,0,0,0,.11-.08l3.63-7.37A.13.13,0,0,1,32.83,17.92Z"
     stroke-linecap="round"
     id="path2"
     style="fill:none;stroke:#00ffff" />
  <path
     style="fill:#00ffff;fill-opacity:1;stroke-width:2.989;stroke-dasharray:none;stroke:#00ffff;stroke-opacity:1"
     d="M 351.6812,696.35143 C 287.75036,658.27899 281.58698,654.39051 265.50436,641.9822 250.47944,630.38995 225.53065,605.35717 213.68163,589.98502 184.55996,552.20443 164.51837,508.7877 155.41535,463.7609 c -5.99007,-29.62905 -5.79438,-24.88909 -6.20393,-150.26933 -0.27049,-82.80943 -0.0611,-116.92147 0.74139,-120.78709 1.28906,-6.20939 5.84176,-13.43739 11.12012,-17.65465 2.30703,-1.84323 47.30495,-21.20849 121.54421,-52.30761 l 117.88099,-49.380817 8.96638,-0.06716 8.96637,-0.06716 114.07223,42.651257 c 62.73973,23.45819 116.31383,43.9006 119.05355,45.42759 2.73973,1.52698 6.67201,4.97364 8.73841,7.65923 7.21275,9.37405 6.83167,1.16959 6.43473,138.53879 -0.38475,133.15579 -0.20942,128.4266 -5.79337,156.25695 -9.55782,47.63608 -31.50442,93.96271 -63.00173,132.98903 -8.98994,11.13888 -33.62037,35.42654 -45.34494,44.71391 -5.66468,4.48715 -15.97601,11.88779 -22.91407,16.44587 -14.56615,9.56947 -119.12173,72.37463 -120.37194,72.30583 -0.45953,-0.0253 -26.38968,-15.26414 -57.62255,-33.86411 z m 108.0776,-38.31378 c 27.11392,-16.27166 52.89225,-32.11662 57.28519,-35.21103 53.31282,-37.55376 92.42591,-95.82708 106.50729,-158.68179 6.35492,-28.36628 6.08757,-21.6392 6.08757,-153.17665 V 191.05216 l -109.0909,-40.70944 c -60,-22.3902 -109.70737,-40.7194 -110.46082,-40.73156 -0.75345,-0.0122 -51.54328,20.92746 -112.86629,46.5325 l -111.49639,46.55461 0.33184,113.59483 c 0.32214,110.27611 0.39372,113.9732 2.45001,126.54625 2.65369,16.22572 7.05201,33.73513 12.30428,48.98243 5.22946,15.18106 19.85737,44.85632 28.40172,57.61782 20.12431,30.05688 45.15449,55.60766 72.87739,74.39315 10.58798,7.17458 107.06373,64.58643 107.78917,64.14436 0.32005,-0.19503 22.76602,-13.66779 49.87994,-29.93946 z"
     id="path3"
     transform="scale(0.08)" />
  <path
     id="path4"
     style="fill:none;fill-opacity:1;stroke-width:2.98879;stroke:none"
     d="M 409.6543 205.79688 C 406.2473 205.73564 402.82954 206.7452 399.34766 208.82422 L 394.52148 211.70703 L 372.53125 256.03906 L 350.54297 300.37305 L 303.29102 307.16211 C 269.12667 312.07025 254.88532 314.50048 251.87305 315.93555 C 243.09077 320.11948 238.24045 333.19257 242.42578 341.39648 C 244.29523 345.0609 252.01256 352.89588 301.12109 400.99609 L 313.32617 412.95117 L 305.35547 459.17188 C 300.97161 484.59296 297.38477 507.09244 297.38477 509.16992 C 297.38477 516.73102 302.5195 524.3132 309.57812 527.17969 C 314.55152 529.19938 316.31365 529.31282 322.10742 527.97656 C 324.47201 527.43121 344.8148 517.27931 367.31445 505.41797 C 389.8141 493.55664 408.76674 483.85156 409.43164 483.85156 C 410.09652 483.85156 429.12546 493.58654 451.7168 505.48438 C 497.27487 529.47771 499.98467 530.52036 508.67188 527.39648 C 516.18222 524.69581 521.55076 517.13554 521.53906 509.27539 C 521.53604 507.25627 517.94434 484.75679 513.55859 459.27734 L 505.58594 412.95117 L 517.80273 400.99609 C 563.09116 356.68296 575.64278 344.04413 576.43555 341.95898 C 576.92977 340.65908 577.33208 336.82258 577.33008 333.43359 C 577.32654 328.32366 576.8395 326.54009 574.47656 322.97852 C 570.8901 317.5728 568.5059 315.907 562.05469 314.30078 C 559.22566 313.59641 536.98517 310.17501 512.63086 306.69727 L 468.34961 300.37305 L 446.6543 256.4082 L 424.95703 212.44531 L 419.89062 209.19336 C 416.45705 206.99004 413.06129 205.85811 409.6543 205.79688 z M 409.44336 264.00977 L 409.44531 264.00977 L 409.44727 264.00977 L 409.44922 264.00977 L 409.45117 264.00977 C 409.45214 264.01006 409.456 264.01128 409.45703 264.01172 C 409.52341 264.04686 409.71838 264.34574 410.02344 264.87695 C 409.65984 264.5568 409.36541 264.43285 409.11523 264.46484 C 409.28584 264.18488 409.39517 264.02994 409.43945 264.01172 L 409.44141 264.01172 L 409.44336 264.00977 z M 408.37305 265.76758 C 408.45721 265.91398 408.6258 266.00195 408.86719 266.00195 C 408.86823 266.00195 408.87196 266.00186 408.87305 266.00195 C 409.01584 266.0252 409.51851 266.78124 410.30664 268.13281 C 412.01892 273.42677 438.16959 324.17918 441.5625 328.63672 C 446.23473 334.77502 449.99482 335.8495 489.16602 342.24219 C 516.89598 346.76767 518.46278 347.02753 518.55078 345.93164 C 519.02597 346.03623 519.29592 346.11232 519.33789 346.1543 C 519.65838 346.4748 509.08165 357.43158 495.83398 370.50195 C 470.04547 395.94535 467.80808 398.9174 467.76758 407.78125 C 467.74915 411.81855 476.5973 467.89012 478.38477 475.0625 C 478.89125 477.0948 474.76992 475.25607 446.55273 460.86523 C 412.00845 443.24755 411.15455 442.95486 402.86523 445.86523 C 397.93813 447.59513 380.15271 456.50932 356.82031 468.94531 C 348.13952 473.57211 340.89287 477.21281 340.7168 477.03516 C 340.54072 476.85751 342.81235 462.36628 345.76562 444.83203 C 348.71891 427.29778 351.1442 410.93451 351.1543 408.46875 C 351.17724 402.87878 350.06396 399.3988 346.02734 394.25195 C 344.98309 392.98692 343.64661 391.58419 341.67188 389.7207 C 338.01862 385.67157 335.09527 382.33052 326.49023 373.92188 C 315.54369 363.22516 306.17781 354.41223 303.90625 352.64062 C 299.4867 348.20238 296.57095 345.20844 296.65039 345.13867 C 296.78078 345.02415 311.68148 342.82764 329.76367 340.25586 C 366.75893 334.99415 371.37057 333.72382 376.51562 327.38867 C 378.3476 325.13295 386.36484 309.94981 394.33008 293.64844 C 400.57692 280.86387 406.10795 269.90218 408.37305 265.76758 z M 521.83203 345.00195 C 521.83318 345.00229 521.90524 345.01336 521.90625 345.01367 C 521.9376 345.02342 520.33379 346.58915 520.26562 346.69531 C 520.31642 346.57293 521.86191 345.04741 521.83203 345.00195 z M 476.79297 477.43945 C 477.76934 477.8328 478.37113 478.02973 478.5332 477.99805 C 478.91325 477.92375 479.22877 477.90581 479.45312 477.70312 C 479.52506 478.2856 479.55377 478.62303 479.53516 478.68359 L 479.5332 478.68555 L 479.5332 478.6875 L 479.53125 478.68945 L 479.53125 478.69141 C 479.48437 478.73571 478.5077 478.28561 476.79297 477.43945 z "
     transform="scale(0.08)" />
  <path
     style="fill:#ff00ff;fill-opacity:1;stroke-width:2.98879;stroke:none"
     d=""
     id="path5"
     transform="scale(0.08)" />
  <path
     style="fill:#ff00ff;fill-opacity:1;stroke-width:2.98879;stroke:none"
     d=""
     id="path6"
     transform="scale(0.08)" />
  <path
     style="fill:none;fill-opacity:1;stroke:none;stroke-width:2.98879"
     d="m 395.01868,719.58853 c -47.52661,-28.00125 -99.90271,-59.65792 -111.08344,-67.13997 -17.10393,-11.44581 -28.72199,-21.33339 -46.85465,-39.87575 -16.12215,-16.48642 -24.15177,-26.27404 -35.03846,-42.7098 -24.02,-36.26325 -39.47083,-75.4662 -47.11821,-119.55168 -1.86734,-10.76482 -2.29113,-18.66689 -3.12565,-58.28144 -0.53098,-25.20548 -0.83058,-80.34869 -0.66578,-122.54048 l 0.29964,-76.71232 2.26096,-4.58867 c 4.60505,-9.34606 7.21235,-11.26433 27.12883,-19.95939 23.29424,-10.16972 58.95748,-25.27074 147.44707,-62.43406 l 70.23661,-29.497538 9.46451,-0.624325 9.46451,-0.624324 97.63387,36.601637 c 97.67072,36.61545 124.59452,46.83993 133.00125,50.50805 5.55426,2.4235 13.36446,10.63092 15.02782,15.79214 1.70526,5.29118 2.38131,148.48666 1.01072,214.07928 -1.10934,53.08962 -1.52869,57.42148 -8.13224,84.00407 -10.39256,41.83535 -31.252,83.87905 -58.38324,117.67568 -8.07955,10.06447 -31.32676,33.43533 -42.56871,42.79514 -17.99993,14.98635 -34.36345,25.29458 -142.57079,89.81276 l -2.98879,1.78205 z m 60.14823,-56.43502 c 71.41003,-43.00683 76.1596,-46.36513 99.85682,-70.60631 38.83656,-39.72803 62.34371,-85.22262 73.75094,-142.734 1.63889,-8.26268 1.80432,-18.82799 2.10797,-134.62297 0.31463,-119.97864 0.24896,-125.68829 -1.4534,-126.35779 -5.14535,-2.02356 -140.15571,-52.32457 -176.46244,-65.74488 -40.50095,-14.97065 -42.32147,-15.54259 -45.82814,-14.39752 -4.59645,1.50092 -53.68173,21.78214 -142.63057,58.93257 -38.08219,15.90544 -71.7061,29.93625 -74.7198,31.17959 l -5.47945,2.26062 -0.26077,79.54331 c -0.14343,43.74882 0.15624,97.47606 0.66593,119.39387 0.90119,38.75309 1.01017,40.25007 3.95728,54.35731 5.74138,27.48291 11.81165,44.86066 24.7167,70.75812 13.78566,27.66463 27.22288,46.02182 51.01124,69.68876 8.00509,7.96423 19.74332,18.36383 26.08494,23.11024 11.26177,8.4289 93.69054,58.57283 110.5121,67.22788 4.65754,2.3964 9.2349,4.16052 10.17194,3.92028 0.93703,-0.24025 20.73645,-11.89933 43.99871,-25.90908 z"
     id="path7"
     transform="scale(0.08)" />
  <path
     style="fill:#ff00ff;fill-opacity:1;stroke:none;stroke-width:2.98879"
     d=""
     id="path8"
     transform="scale(0.08)" />
  <path
     style="fill:none;fill-opacity:1;stroke:none;stroke-width:0;stroke-opacity:1;opacity:1;stroke-dasharray:none"
     d="M 397.50644,721.09358 C 356.33692,696.86624 296.04383,660.52147 285.90684,653.82117 267.8996,641.91881 255.78208,631.66782 237.11083,612.54145 212.37626,587.20397 196.70393,565.06579 181.85966,534.49564 169.6371,509.32463 162.48533,488.06643 156.8897,460.27397 c -5.05872,-25.12573 -5.21914,-29.71745 -5.34268,-152.92652 -0.10707,-106.77152 0.003,-114.83066 1.61445,-118.39422 2.58308,-5.71162 7.50583,-11.46193 11.58472,-13.53222 7.07323,-3.59011 63.56956,-27.66392 148.57884,-63.31137 l 86.17684,-36.137037 8.96637,-0.489647 8.96638,-0.489646 99.12827,37.17755 c 140.94312,52.86 133.92075,50.02966 140.13803,56.48207 3.30178,3.42664 5.62114,6.91879 6.47572,9.75016 1.838,6.08961 1.77256,237.79767 -0.0727,257.46241 -3.26345,34.77812 -15.24481,74.01065 -32.87022,107.63235 -17.17759,32.76746 -36.67737,57.88875 -65.33346,84.16817 -22.84385,20.94925 -28.14352,24.37946 -152.44986,98.67317 l -2.99169,1.78803 z m 58.8361,-58.66405 c 68.29381,-41.15657 76.27757,-46.80624 98.62283,-69.78986 39.20935,-40.32949 61.66284,-83.82088 73.88083,-143.10378 1.38725,-6.73112 1.63586,-23.39576 1.98868,-133.30563 0.32861,-102.36844 0.16307,-125.80822 -0.89454,-126.66867 -1.59796,-1.30007 -185.46835,-70.02773 -210.38158,-78.63709 l -9.83102,-3.39735 -16.56997,6.7038 c -9.11349,3.6871 -59.83274,24.73013 -112.70945,46.76231 l -96.13948,40.0585 -0.26862,78.05444 c -0.14774,42.92994 0.15971,96.65968 0.68321,119.3994 0.92775,40.29861 1.0281,41.71209 3.96513,55.85171 3.17418,15.28135 8.48906,33.921 12.76592,44.77096 6.92162,17.55943 21.11673,44.60414 30.06188,57.27426 16.72707,23.69261 42.02918,49.61652 62.89416,64.43973 8.44302,5.99823 32.66459,20.8739 72.71277,44.65655 29.98129,17.80441 40.72688,23.71286 43.3911,23.85849 0.57744,0.0316 21.2001,-12.08593 45.82815,-26.92777 z"
     id="path9"
     transform="scale(0.08)" />
  <path
     style="opacity:1;fill:none;fill-opacity:1;stroke:none;stroke-width:0;stroke-dasharray:none;stroke-opacity:1"
     d="m 311.37355,527.53411 c -6.05617,-2.26225 -11.44985,-8.11664 -13.10144,-14.22049 -0.9633,-3.56012 0.7476,-15.37023 9.60915,-66.33055 l 5.88001,-33.81433 -34.7356,-34.51878 c -38.52552,-38.28505 -38.23893,-37.93749 -37.54968,-45.5387 0.73128,-8.06467 6.05438,-15.50144 12.47191,-17.42418 4.4253,-1.32585 24.21021,-4.50797 62.00467,-9.97255 19.17906,-2.77304 34.9191,-5.09101 34.97786,-5.15104 0.0588,-0.06 9.92578,-19.97256 21.92673,-44.25007 21.08854,-42.66143 21.91997,-44.20409 24.80603,-46.02599 8.27615,-5.2245 15.03484,-5.16058 23.52304,0.22248 l 3.41866,2.16805 21.46376,43.53596 c 11.80507,23.94477 21.67456,43.75056 21.93218,44.01286 0.25763,0.26229 7.44262,1.46929 15.96665,2.68222 38.76238,5.51571 76.41025,11.34833 79.84757,12.37045 4.55179,1.35353 9.2586,5.44759 11.43745,9.94849 2.16187,4.46582 2.13525,13.9475 -0.0491,17.4818 -0.82343,1.33234 -16.90307,17.65564 -35.73254,36.27401 l -34.23541,33.85159 1.46879,8.62028 c 9.85002,57.80947 14.24645,84.99395 14.24074,88.055 -0.0143,7.66395 -5.9586,15.42434 -13.67887,17.85794 -7.19197,2.26707 -11.39336,0.64331 -48.85622,-18.88193 -11.90288,-6.20366 -27.73594,-14.42353 -35.18458,-18.2664 l -13.54298,-6.98701 -7.9432,3.97389 c -4.36876,2.18564 -20.14806,10.3318 -35.06511,18.10258 -37.70643,19.64251 -43.71494,22.43512 -48.96032,22.75561 -2.32473,0.14204 -5.17782,-0.097 -6.34018,-0.53119 z m 168.71937,-49.12022 c 0,-0.3423 -0.86574,-0.78784 -1.92388,-0.99012 -1.79953,-0.344 -1.83636,-0.30377 -0.56982,0.62234 1.54811,1.132 2.4937,1.27146 2.4937,0.36778 z m -96.82663,-22.64944 c 10.48183,-5.31562 20.59138,-9.99184 22.46566,-10.39158 2.59136,-0.55269 4.35455,-0.48937 7.35957,0.26429 2.17348,0.54511 16.98345,7.47304 32.91104,15.39542 15.92758,7.92237 29.8458,14.62683 30.92935,14.89878 1.92037,0.48198 1.95919,0.43406 1.5379,-1.89878 -2.0822,-11.52999 -7.08548,-42.4034 -8.68605,-53.59848 -2.24793,-15.72289 -2.07568,-17.74515 2.02019,-23.71821 1.2341,-1.79969 12.48024,-13.69122 24.99142,-26.42561 12.51118,-12.73439 22.7476,-23.38694 22.7476,-23.67233 0,-0.28538 -2.29832,-0.71916 -5.10738,-0.96394 -6.34809,-0.55318 -45.01772,-6.9185 -54.47497,-8.967 -10.2828,-2.22733 -13.95181,-3.7922 -16.93091,-7.22127 -2.79294,-3.21477 -14.24441,-24.46266 -26.16152,-48.54197 -4.1657,-8.41707 -7.89101,-15.30921 -8.27847,-15.31586 -0.38745,-0.007 -6.95171,12.43665 -14.58724,27.65176 -17.20477,34.2835 -18.0117,35.58054 -23.91784,38.44465 -5.71934,2.77352 -11.99218,4.00107 -46.00537,9.00291 -15.31845,2.25268 -27.85172,4.31024 -27.85172,4.57237 0,0.26213 7.49003,7.56068 16.64451,16.21902 20.01366,18.92894 33.95419,33.6854 36.06489,38.17572 2.6582,5.65508 2.36651,8.88301 -4.78414,52.94257 -1.94918,12.01009 -3.54396,22.57599 -3.54396,23.47977 0,1.54176 0.72872,1.2631 11.79979,-4.51211 6.48988,-3.38544 20.37582,-10.5045 30.85765,-15.82012 z M 521.74622,345.36398 c 0.87626,-1.11732 0.85135,-1.14224 -0.26598,-0.26597 -1.17346,0.92029 -1.54663,1.49879 -0.96683,1.49879 0.14628,0 0.70105,-0.55477 1.23281,-1.23282 z M 410.35088,264.5682 c 0,-0.17086 -0.317,-0.50658 -0.70446,-0.74604 -0.38746,-0.23946 -0.70447,-0.0997 -0.70447,0.31065 0,0.41033 0.31701,0.74604 0.70447,0.74604 0.38746,0 0.70446,-0.13979 0.70446,-0.31065 z"
     id="path10"
     transform="scale(0.08)" />
</svg>
