<svg xmlns="http://www.w3.org/2000/svg" viewBox="0 0 47.88 49.2"><defs><style>.cls-1{fill:#42a5f5;}</style></defs><title>Asset 196</title><g id="Layer_2" data-name="Layer 2"><g id="Layer_1-2" data-name="Layer 1"><path class="cls-1" d="M39.8,0a2.06,2.06,0,0,0,.37.19,5,5,0,0,1,3.83,5,5,5,0,0,1-3.77,4.87A5.06,5.06,0,0,1,34,6.69,5.1,5.1,0,0,1,37.16.33l.9-.33Z"/><path class="cls-1" d="M42.54,37.65A7.35,7.35,0,0,0,32,43.5a19.71,19.71,0,0,1-12.62-1.61L23.27,35A12,12,0,0,0,40,25.42h7.92A19.85,19.85,0,0,1,42.54,37.65Z"/><path class="cls-1" d="M16.49,7.92l4.17,6.67a12.15,12.15,0,0,0-.1,18.77L16.67,40.3c-.35-.26-.66-.47-1-.71a20,20,0,0,1-6.18-8.43,1,1,0,0,1,.3-1.31,7.14,7.14,0,0,0-.33-11c-.11-.09-.22-.19-.44-.39A19.55,19.55,0,0,1,16.49,7.92Z"/><path class="cls-1" d="M43.06,11a19.74,19.74,0,0,1,4.79,11.28c-2.63.36-5.27.13-7.88.33-1.47-8.49-9.59-12.44-16.79-9.48L19.25,6.25A19.67,19.67,0,0,1,31.63,4.55C31.75,11.33,38.26,14.08,43.06,11Z"/><path class="cls-1" d="M39.22,38.92a5.14,5.14,0,0,1-.07,10.28,5.14,5.14,0,0,1,.07-10.28Z"/><path class="cls-1" d="M5.15,29.57a5.11,5.11,0,1,1,5.13-5.11A5.1,5.1,0,0,1,5.15,29.57Z"/></g></g></svg>