<svg xmlns="http://www.w3.org/2000/svg" viewBox="0 0 71.33 22.51"><defs><style>.cls-1{fill:#42a5f5;}</style></defs><title>Asset 207</title><g id="Layer_2" data-name="Layer 2"><g id="Layer_1-2" data-name="Layer 1"><path class="cls-1" d="M62.71,22.51a8.61,8.61,0,1,1,8.61-8.61A8.61,8.61,0,0,1,62.71,22.51Zm0-3.56a5.05,5.05,0,1,0-5.05-5.05A5.05,5.05,0,0,0,62.71,19Zm-18,3.56a8.61,8.61,0,1,1,8.61-8.61A8.61,8.61,0,0,1,44.68,22.51Zm0-3.56a5.05,5.05,0,1,0-5.05-5.05A5.05,5.05,0,0,0,44.68,19Zm-9.42-5.17a8.61,8.61,0,1,1-17.23,0,8.28,8.28,0,0,1,8.61-8.51A8.35,8.35,0,0,1,31.7,6.73v-5a1.78,1.78,0,0,1,3.56,0ZM26.65,19a5.05,5.05,0,1,0-5.05-5.05A5.05,5.05,0,0,0,26.65,19Z"/><path class="cls-1" d="M8.61,22.51a8.61,8.61,0,1,1,8.61-8.61A8.61,8.61,0,0,1,8.61,22.51Zm0-3.56A5.05,5.05,0,1,0,3.56,13.9,5.05,5.05,0,0,0,8.61,19Z"/></g></g></svg>