<svg xmlns="http://www.w3.org/2000/svg" viewBox="0 0 49.95 35.84"><defs><style>.cls-1{fill:#42a5f5;}</style></defs><title>Asset 209</title><g id="Layer_2" data-name="Layer 2"><g id="Layer_1-2" data-name="Layer 1"><path class="cls-1" d="M49.46,13.55a6.56,6.56,0,0,0-4.08-1.07,13,13,0,0,0-2.11.19,7.94,7.94,0,0,0-3.57-5.35L39,6.9l-.46.67a9.91,9.91,0,0,0-1.27,3,7,7,0,0,0,.83,5.54,9.83,9.83,0,0,1-3.64.88H1.56A1.55,1.55,0,0,0,0,18.51,23.44,23.44,0,0,0,1.44,27a12.68,12.68,0,0,0,5,6.51c2.46,1.51,6.46,2.36,11,2.36a33.68,33.68,0,0,0,6.09-.56,25.14,25.14,0,0,0,8-2.9,21.81,21.81,0,0,0,5.42-4.45,29.49,29.49,0,0,0,5.3-9.15h.46a7.62,7.62,0,0,0,5.58-2.11,6.17,6.17,0,0,0,1.48-2.18l.21-.6Z"/><path class="cls-1" d="M4.61,16H9a.39.39,0,0,0,.39-.39h0V11.67A.39.39,0,0,0,9,11.28H4.61a.39.39,0,0,0-.39.39h0v3.94a.41.41,0,0,0,.39.39h0"/><path class="cls-1" d="M10.68,16h4.4a.39.39,0,0,0,.39-.39h0V11.67a.39.39,0,0,0-.39-.39h-4.4a.39.39,0,0,0-.39.39v3.94a.41.41,0,0,0,.39.39"/><path class="cls-1" d="M16.87,16h4.4a.39.39,0,0,0,.39-.39h0V11.67a.39.39,0,0,0-.39-.39h-4.4a.39.39,0,0,0-.39.39h0v3.94a.38.38,0,0,0,.39.39h0"/><path class="cls-1" d="M23,16h4.4a.39.39,0,0,0,.39-.39V11.67a.39.39,0,0,0-.39-.39H23a.39.39,0,0,0-.39.39h0v3.94A.39.39,0,0,0,23,16h0"/><path class="cls-1" d="M10.68,10.38h4.4a.41.41,0,0,0,.39-.39V6a.39.39,0,0,0-.39-.39h-4.4a.39.39,0,0,0-.39.39V10a.42.42,0,0,0,.39.39"/><path class="cls-1" d="M16.87,10.38h4.4a.41.41,0,0,0,.39-.39V6a.39.39,0,0,0-.39-.39h-4.4a.39.39,0,0,0-.39.39h0V10a.39.39,0,0,0,.39.39"/><path class="cls-1" d="M23,10.38h4.4a.41.41,0,0,0,.39-.39V6a.41.41,0,0,0-.39-.39H23a.39.39,0,0,0-.39.39h0V10a.41.41,0,0,0,.39.39"/><path class="cls-1" d="M23,4.73h4.4a.39.39,0,0,0,.39-.39V.39A.41.41,0,0,0,27.36,0H23a.39.39,0,0,0-.39.39h0V4.33a.41.41,0,0,0,.39.39"/><path class="cls-1" d="M29.1,16h4.4a.39.39,0,0,0,.39-.39V11.67a.39.39,0,0,0-.39-.39H29.1a.39.39,0,0,0-.39.39h0v3.94a.41.41,0,0,0,.39.39"/></g></g></svg>