<svg xmlns="http://www.w3.org/2000/svg" viewBox="0 0 48.58 48.58"><defs><style>.cls-1{fill:#42a5f5;}</style></defs><title>Asset 202</title><g id="Layer_2" data-name="Layer 2"><g id="Layer_1-2" data-name="Layer 1"><path class="cls-1" d="M24.29,0A24.29,24.29,0,1,0,48.58,24.29,24.32,24.32,0,0,0,24.29,0ZM2.45,24.29A21.75,21.75,0,0,1,4.34,15.4L14.76,43.94A21.84,21.84,0,0,1,2.45,24.29ZM24.29,46.13a21.83,21.83,0,0,1-6.17-.89l6.55-19,6.71,18.39a2,2,0,0,0,.16.3A21.8,21.8,0,0,1,24.29,46.13ZM27.3,14c1.31-.07,2.5-.21,2.5-.21a.9.9,0,0,0-.14-1.8s-3.54.28-5.82.28S18.09,12,18.09,12a.9.9,0,0,0-.14,1.8s1.11.14,2.29.21l3.4,9.32L18.86,37.7,10.91,14c1.32-.07,2.5-.21,2.5-.21a.9.9,0,0,0-.14-1.8s-3.54.28-5.82.28L6,12.29A21.83,21.83,0,0,1,39,8.18l-.28,0A3.78,3.78,0,0,0,35.08,12c0,1.8,1,3.32,2.14,5.12a11.5,11.5,0,0,1,1.8,6c0,1.87-.72,4-1.66,7.06l-2.18,7.28Zm16.15-.24a21.84,21.84,0,0,1-8.18,29.35l6.67-19.28a20.62,20.62,0,0,0,1.66-7.82A16.76,16.76,0,0,0,43.45,13.81Z"/></g></g></svg>